<?xml version="1.0" encoding="UTF-8"?>
<svg id="Camada_1" data-name="Camada 1" xmlns="http://www.w3.org/2000/svg" viewBox="0 0 309.46 309.45">
  <path d="M183.05,206.3c3.14,0,6.22,1.06,8.55,3.16.16.15.33.3.48.46l73.74,73.74h-59.52v25.79h85.34v-17.79h17.82v-85.36h-25.79v59.55l-73.6-73.6c-2.23-2.23-3.65-5.29-3.76-8.67-.01-.15-.01-.3-.01-.45s0-.3.01-.45v-56.69c0-3.2,1.27-6.27,3.54-8.54l.17-.17.19-.19,73.47-73.46v59.52h25.79V17.82h-17.82V0h-85.34v25.79h59.55l-73.44,73.44-.29.29-.1.1c-2.27,2.27-5.34,3.54-8.55,3.54h-57.48c-3.21,0-6.28-1.27-8.55-3.54l-.24-.24h-.01S43.61,25.79,43.61,25.79h59.55V0H17.82v17.82H0v85.33h25.79v-59.52l73.59,73.59c2.34,2.33,3.78,5.56,3.78,9.12v56.82c0,3.41-1.33,6.51-3.49,8.82-.19.2-.38.39-.59.59l-73.29,73.29v-59.55H0v85.36h17.82v17.79h85.34v-25.79h-59.52l73.64-73.64c2.33-2.3,5.53-3.72,9.07-3.72h56.71Z"/>
</svg>