<?xml version="1.0" encoding="UTF-8"?>
<svg id="Camada_1" data-name="Camada 1" xmlns="http://www.w3.org/2000/svg" viewBox="0 0 704.91 87.18">
  <path d="M51.57,58.12c.88,0,1.75.3,2.41.89.05.04.09.09.14.13l20.78,20.77h-16.77v7.27h24.04v-5.01h5.02v-24.05h-7.27v16.78l-20.74-20.74c-.63-.63-1.03-1.49-1.06-2.44,0-.04,0-.08,0-.13s0-.08,0-.13v-15.97c0-.9.36-1.77,1-2.41l.05-.05.05-.05,20.7-20.7v16.77h7.27V5.02h-5.02V0h-24.04v7.27h16.78l-20.69,20.69-.08.08-.03.03c-.64.64-1.51,1-2.41,1h-16.19c-.9,0-1.77-.36-2.41-1l-.07-.07h0S12.29,7.27,12.29,7.27h16.78V0H5.02v5.02H0v24.04h7.27V12.29l20.73,20.73c.66.66,1.06,1.57,1.06,2.57v16.01c0,.96-.37,1.84-.98,2.49-.05.06-.11.11-.17.17l-20.65,20.65v-16.78H0v24.05h5.02v5.01h24.04v-7.27H12.29l20.75-20.75c.66-.65,1.56-1.05,2.56-1.05h15.98Z"/>
  <g>
    <path d="M121.32,10.82h41.23l11.12,11.12v46.64l-11.12,11.12h-41.23V10.82ZM158.12,71.44l6.1-6.1V25.19l-6.1-6.1h-27.35v52.35h27.35Z"/>
    <path d="M238.02,58.06v21.65h-9.45v-19.29l-8.17-8.76h-23.52v28.04h-9.45V10.82h40.64l9.54,9.55v21.45l-7.58,7.58,7.97,8.66ZM196.89,43.59h26.96l4.43-4.33v-16.04l-4.43-4.33h-26.96v24.7Z"/>
    <path d="M251.3,68.68V21.84l11.02-11.02h32.47l11.02,11.02v46.84l-11.02,11.02h-32.47l-11.02-11.02ZM290.27,71.44l6.1-6.1V25.19l-6.1-6.1h-23.42l-6.1,6.1v40.15l6.1,6.1h23.42Z"/>
    <path d="M319.59,10.82h8.86l34.14,53.33h.2V10.82h9.05v68.88h-8.86l-34.14-53.33h-.2v53.33h-9.05V10.82Z"/>
    <path d="M386.6,10.82h46.25v8.27h-36.8v21.94h33.95v8.17h-33.95v22.24h36.8v8.27h-46.25V10.82Z"/>
    <path d="M469.55,10.82h46.25v8.27h-36.8v21.94h33.95v8.17h-33.95v22.24h36.8v8.27h-46.25V10.82Z"/>
    <path d="M527.6,10.82h41.23l11.12,11.12v46.64l-11.12,11.12h-41.23V10.82ZM564.4,71.44l6.1-6.1V25.19l-6.1-6.1h-27.35v52.35h27.35Z"/>
    <path d="M592.74,68.68V21.84l11.02-11.02h31.49l10.63,10.63v7.77h-9.45v-4.43l-5.71-5.71h-22.43l-6.1,6.1v40.15l6.1,6.1h22.24l6-6v-14.17h-15.25v-8.27h24.6v25.68l-11.02,11.02h-31.09l-11.02-11.02Z"/>
    <path d="M658.67,10.82h46.25v8.27h-36.8v21.94h33.95v8.17h-33.95v22.24h36.8v8.27h-46.25V10.82Z"/>
  </g>
</svg>